<mxfile host="app.diagrams.net" modified="2022-05-11T09:47:42.158Z" agent="5.0 (Macintosh; Intel Mac OS X 10_15_7) AppleWebKit/537.36 (KHTML, like Gecko) Chrome/101.0.4951.54 Safari/537.36" etag="Yqs8E3E8FDmyArSPgrfI" version="18.0.2" type="github" pages="3">
  <diagram id="nWiH8mXC5Z4KRHZyhjYG" name="网关">
    <mxGraphModel dx="1234" dy="794" grid="0" gridSize="10" guides="1" tooltips="1" connect="1" arrows="1" fold="1" page="1" pageScale="1" pageWidth="827" pageHeight="1169" math="0" shadow="0">
      <root>
        <mxCell id="0" />
        <mxCell id="1" parent="0" />
        <mxCell id="PieOw4Xy5nio8Q285p1y-5" style="rounded=0;orthogonalLoop=1;jettySize=auto;html=1;exitX=1;exitY=0.5;exitDx=0;exitDy=0;entryX=0;entryY=0.5;entryDx=0;entryDy=0;" parent="1" source="PieOw4Xy5nio8Q285p1y-1" target="PieOw4Xy5nio8Q285p1y-3" edge="1">
          <mxGeometry relative="1" as="geometry" />
        </mxCell>
        <mxCell id="PieOw4Xy5nio8Q285p1y-1" value="上海网关" style="rounded=1;whiteSpace=wrap;html=1;fillColor=#fff2cc;strokeColor=#d6b656;" parent="1" vertex="1">
          <mxGeometry x="70" y="130" width="120" height="60" as="geometry" />
        </mxCell>
        <mxCell id="PieOw4Xy5nio8Q285p1y-6" style="edgeStyle=none;rounded=0;orthogonalLoop=1;jettySize=auto;html=1;exitX=1;exitY=0.5;exitDx=0;exitDy=0;" parent="1" source="PieOw4Xy5nio8Q285p1y-2" target="PieOw4Xy5nio8Q285p1y-4" edge="1">
          <mxGeometry relative="1" as="geometry" />
        </mxCell>
        <mxCell id="PieOw4Xy5nio8Q285p1y-2" value="深圳网关" style="rounded=1;whiteSpace=wrap;html=1;fillColor=#fff2cc;strokeColor=#d6b656;" parent="1" vertex="1">
          <mxGeometry x="70" y="300" width="120" height="60" as="geometry" />
        </mxCell>
        <mxCell id="PieOw4Xy5nio8Q285p1y-3" value="上海服务" style="ellipse;whiteSpace=wrap;html=1;fillColor=#e1d5e7;strokeColor=#9673a6;" parent="1" vertex="1">
          <mxGeometry x="330" y="120" width="120" height="80" as="geometry" />
        </mxCell>
        <mxCell id="PieOw4Xy5nio8Q285p1y-4" value="深圳服务" style="ellipse;whiteSpace=wrap;html=1;fillColor=#e1d5e7;strokeColor=#9673a6;" parent="1" vertex="1">
          <mxGeometry x="330" y="290" width="120" height="80" as="geometry" />
        </mxCell>
        <mxCell id="PieOw4Xy5nio8Q285p1y-7" style="rounded=0;orthogonalLoop=1;jettySize=auto;html=1;exitX=1;exitY=0.5;exitDx=0;exitDy=0;entryX=0;entryY=0;entryDx=0;entryDy=0;" parent="1" source="PieOw4Xy5nio8Q285p1y-8" target="PieOw4Xy5nio8Q285p1y-12" edge="1">
          <mxGeometry relative="1" as="geometry">
            <mxPoint x="325" y="497" as="targetPoint" />
          </mxGeometry>
        </mxCell>
        <mxCell id="PieOw4Xy5nio8Q285p1y-8" value="上海网关" style="rounded=1;whiteSpace=wrap;html=1;fillColor=#fff2cc;strokeColor=#d6b656;" parent="1" vertex="1">
          <mxGeometry x="65" y="467" width="120" height="60" as="geometry" />
        </mxCell>
        <mxCell id="PieOw4Xy5nio8Q285p1y-9" style="edgeStyle=none;rounded=0;orthogonalLoop=1;jettySize=auto;html=1;exitX=1;exitY=0.5;exitDx=0;exitDy=0;" parent="1" source="PieOw4Xy5nio8Q285p1y-10" target="PieOw4Xy5nio8Q285p1y-12" edge="1">
          <mxGeometry relative="1" as="geometry" />
        </mxCell>
        <mxCell id="PieOw4Xy5nio8Q285p1y-10" value="深圳网关" style="rounded=1;whiteSpace=wrap;html=1;fillColor=#fff2cc;strokeColor=#d6b656;" parent="1" vertex="1">
          <mxGeometry x="65" y="637" width="120" height="60" as="geometry" />
        </mxCell>
        <mxCell id="PieOw4Xy5nio8Q285p1y-12" value="Formal" style="ellipse;whiteSpace=wrap;html=1;fillColor=#e1d5e7;strokeColor=#9673a6;" parent="1" vertex="1">
          <mxGeometry x="332" y="547" width="120" height="80" as="geometry" />
        </mxCell>
      </root>
    </mxGraphModel>
  </diagram>
  <diagram id="yI1YDKMP3ebjlCH_Cj3e" name="分set路由">
    <mxGraphModel dx="1234" dy="794" grid="1" gridSize="10" guides="1" tooltips="1" connect="1" arrows="1" fold="1" page="1" pageScale="1" pageWidth="827" pageHeight="1169" math="0" shadow="0">
      <root>
        <mxCell id="ar0YonLz6d8A-IU5Dzzf-0" />
        <mxCell id="ar0YonLz6d8A-IU5Dzzf-1" parent="ar0YonLz6d8A-IU5Dzzf-0" />
        <mxCell id="fMMnpMhkLDi-iXiSn1Gf-44" value="" style="rounded=1;whiteSpace=wrap;html=1;fillColor=#F8CECC;gradientColor=none;" parent="ar0YonLz6d8A-IU5Dzzf-1" vertex="1">
          <mxGeometry x="260" y="60" width="380" height="130" as="geometry" />
        </mxCell>
        <mxCell id="fMMnpMhkLDi-iXiSn1Gf-10" value="" style="group;fillColor=#fff2cc;strokeColor=#d6b656;gradientColor=none;" parent="ar0YonLz6d8A-IU5Dzzf-1" vertex="1" connectable="0">
          <mxGeometry x="350" y="230" width="210" height="210" as="geometry" />
        </mxCell>
        <mxCell id="fMMnpMhkLDi-iXiSn1Gf-0" value="" style="whiteSpace=wrap;html=1;aspect=fixed;fillColor=#F8CECC;" parent="fMMnpMhkLDi-iXiSn1Gf-10" vertex="1">
          <mxGeometry width="210" height="210" as="geometry" />
        </mxCell>
        <mxCell id="fMMnpMhkLDi-iXiSn1Gf-3" value="cluster2" style="text;html=1;strokeColor=none;fillColor=none;align=center;verticalAlign=middle;whiteSpace=wrap;rounded=0;" parent="fMMnpMhkLDi-iXiSn1Gf-10" vertex="1">
          <mxGeometry x="70" y="10" width="60" height="30" as="geometry" />
        </mxCell>
        <mxCell id="fMMnpMhkLDi-iXiSn1Gf-4" value="实例1" style="ellipse;whiteSpace=wrap;html=1;" parent="fMMnpMhkLDi-iXiSn1Gf-10" vertex="1">
          <mxGeometry x="10" y="50" width="80" height="50" as="geometry" />
        </mxCell>
        <mxCell id="fMMnpMhkLDi-iXiSn1Gf-5" value="实例2" style="ellipse;whiteSpace=wrap;html=1;" parent="fMMnpMhkLDi-iXiSn1Gf-10" vertex="1">
          <mxGeometry x="10" y="135" width="80" height="50" as="geometry" />
        </mxCell>
        <mxCell id="fMMnpMhkLDi-iXiSn1Gf-6" value="实例3" style="ellipse;whiteSpace=wrap;html=1;" parent="fMMnpMhkLDi-iXiSn1Gf-10" vertex="1">
          <mxGeometry x="110" y="50" width="80" height="50" as="geometry" />
        </mxCell>
        <mxCell id="fMMnpMhkLDi-iXiSn1Gf-7" value="实例4" style="ellipse;whiteSpace=wrap;html=1;" parent="fMMnpMhkLDi-iXiSn1Gf-10" vertex="1">
          <mxGeometry x="110" y="135" width="80" height="50" as="geometry" />
        </mxCell>
        <mxCell id="fMMnpMhkLDi-iXiSn1Gf-18" value="" style="group;fillColor=#fff2cc;strokeColor=#d6b656;gradientColor=none;" parent="ar0YonLz6d8A-IU5Dzzf-1" vertex="1" connectable="0">
          <mxGeometry x="90" y="230" width="210" height="210" as="geometry" />
        </mxCell>
        <mxCell id="fMMnpMhkLDi-iXiSn1Gf-19" value="" style="whiteSpace=wrap;html=1;aspect=fixed;fillColor=#F8CECC;" parent="fMMnpMhkLDi-iXiSn1Gf-18" vertex="1">
          <mxGeometry width="210" height="210" as="geometry" />
        </mxCell>
        <mxCell id="fMMnpMhkLDi-iXiSn1Gf-20" value="cluster1" style="text;html=1;strokeColor=none;fillColor=none;align=center;verticalAlign=middle;whiteSpace=wrap;rounded=0;" parent="fMMnpMhkLDi-iXiSn1Gf-18" vertex="1">
          <mxGeometry x="70" y="10" width="60" height="30" as="geometry" />
        </mxCell>
        <mxCell id="fMMnpMhkLDi-iXiSn1Gf-21" value="实例1" style="ellipse;whiteSpace=wrap;html=1;" parent="fMMnpMhkLDi-iXiSn1Gf-18" vertex="1">
          <mxGeometry x="10" y="50" width="80" height="50" as="geometry" />
        </mxCell>
        <mxCell id="fMMnpMhkLDi-iXiSn1Gf-22" value="实例2" style="ellipse;whiteSpace=wrap;html=1;" parent="fMMnpMhkLDi-iXiSn1Gf-18" vertex="1">
          <mxGeometry x="10" y="135" width="80" height="50" as="geometry" />
        </mxCell>
        <mxCell id="fMMnpMhkLDi-iXiSn1Gf-23" value="实例3" style="ellipse;whiteSpace=wrap;html=1;" parent="fMMnpMhkLDi-iXiSn1Gf-18" vertex="1">
          <mxGeometry x="110" y="50" width="80" height="50" as="geometry" />
        </mxCell>
        <mxCell id="fMMnpMhkLDi-iXiSn1Gf-24" value="实例4" style="ellipse;whiteSpace=wrap;html=1;" parent="fMMnpMhkLDi-iXiSn1Gf-18" vertex="1">
          <mxGeometry x="110" y="135" width="80" height="50" as="geometry" />
        </mxCell>
        <mxCell id="fMMnpMhkLDi-iXiSn1Gf-26" value="" style="group;fillColor=#fff2cc;strokeColor=#d6b656;gradientColor=none;" parent="ar0YonLz6d8A-IU5Dzzf-1" vertex="1" connectable="0">
          <mxGeometry x="600" y="230" width="210" height="210" as="geometry" />
        </mxCell>
        <mxCell id="fMMnpMhkLDi-iXiSn1Gf-27" value="" style="whiteSpace=wrap;html=1;aspect=fixed;fillColor=#F8CECC;" parent="fMMnpMhkLDi-iXiSn1Gf-26" vertex="1">
          <mxGeometry width="210" height="210" as="geometry" />
        </mxCell>
        <mxCell id="fMMnpMhkLDi-iXiSn1Gf-28" value="cluster3" style="text;html=1;strokeColor=none;fillColor=none;align=center;verticalAlign=middle;whiteSpace=wrap;rounded=0;" parent="fMMnpMhkLDi-iXiSn1Gf-26" vertex="1">
          <mxGeometry x="70" y="10" width="60" height="30" as="geometry" />
        </mxCell>
        <mxCell id="fMMnpMhkLDi-iXiSn1Gf-29" value="实例1" style="ellipse;whiteSpace=wrap;html=1;" parent="fMMnpMhkLDi-iXiSn1Gf-26" vertex="1">
          <mxGeometry x="10" y="50" width="80" height="50" as="geometry" />
        </mxCell>
        <mxCell id="fMMnpMhkLDi-iXiSn1Gf-30" value="实例2" style="ellipse;whiteSpace=wrap;html=1;" parent="fMMnpMhkLDi-iXiSn1Gf-26" vertex="1">
          <mxGeometry x="10" y="135" width="80" height="50" as="geometry" />
        </mxCell>
        <mxCell id="fMMnpMhkLDi-iXiSn1Gf-31" value="实例3" style="ellipse;whiteSpace=wrap;html=1;" parent="fMMnpMhkLDi-iXiSn1Gf-26" vertex="1">
          <mxGeometry x="110" y="50" width="80" height="50" as="geometry" />
        </mxCell>
        <mxCell id="fMMnpMhkLDi-iXiSn1Gf-32" value="实例4" style="ellipse;whiteSpace=wrap;html=1;" parent="fMMnpMhkLDi-iXiSn1Gf-26" vertex="1">
          <mxGeometry x="110" y="135" width="80" height="50" as="geometry" />
        </mxCell>
        <mxCell id="fMMnpMhkLDi-iXiSn1Gf-42" style="edgeStyle=orthogonalEdgeStyle;curved=1;rounded=0;orthogonalLoop=1;jettySize=auto;html=1;exitX=0;exitY=0.5;exitDx=0;exitDy=0;entryX=0.5;entryY=0;entryDx=0;entryDy=0;startSize=2;endSize=2;strokeWidth=2;" parent="ar0YonLz6d8A-IU5Dzzf-1" source="fMMnpMhkLDi-iXiSn1Gf-34" target="fMMnpMhkLDi-iXiSn1Gf-19" edge="1">
          <mxGeometry relative="1" as="geometry" />
        </mxCell>
        <mxCell id="fMMnpMhkLDi-iXiSn1Gf-34" value="服务1&lt;br&gt;服务2" style="ellipse;whiteSpace=wrap;html=1;aspect=fixed;fillColor=#F8CECC;gradientColor=none;" parent="ar0YonLz6d8A-IU5Dzzf-1" vertex="1">
          <mxGeometry x="290" y="80" width="80" height="80" as="geometry" />
        </mxCell>
        <mxCell id="fMMnpMhkLDi-iXiSn1Gf-40" style="edgeStyle=orthogonalEdgeStyle;curved=1;rounded=0;orthogonalLoop=1;jettySize=auto;html=1;exitX=0.5;exitY=1;exitDx=0;exitDy=0;entryX=0.5;entryY=0;entryDx=0;entryDy=0;startSize=2;endSize=2;strokeWidth=2;" parent="ar0YonLz6d8A-IU5Dzzf-1" source="fMMnpMhkLDi-iXiSn1Gf-35" target="fMMnpMhkLDi-iXiSn1Gf-0" edge="1">
          <mxGeometry relative="1" as="geometry" />
        </mxCell>
        <mxCell id="fMMnpMhkLDi-iXiSn1Gf-35" value="服务3&lt;br&gt;服务4" style="ellipse;whiteSpace=wrap;html=1;aspect=fixed;fillColor=#F8CECC;gradientColor=none;" parent="ar0YonLz6d8A-IU5Dzzf-1" vertex="1">
          <mxGeometry x="415" y="80" width="80" height="80" as="geometry" />
        </mxCell>
        <mxCell id="fMMnpMhkLDi-iXiSn1Gf-41" style="edgeStyle=orthogonalEdgeStyle;curved=1;rounded=0;orthogonalLoop=1;jettySize=auto;html=1;exitX=1;exitY=0.5;exitDx=0;exitDy=0;entryX=0.5;entryY=0;entryDx=0;entryDy=0;startSize=2;endSize=2;strokeWidth=2;" parent="ar0YonLz6d8A-IU5Dzzf-1" source="fMMnpMhkLDi-iXiSn1Gf-36" target="fMMnpMhkLDi-iXiSn1Gf-27" edge="1">
          <mxGeometry relative="1" as="geometry" />
        </mxCell>
        <mxCell id="fMMnpMhkLDi-iXiSn1Gf-36" value="服务5&lt;br&gt;服务6" style="ellipse;whiteSpace=wrap;html=1;aspect=fixed;fillColor=#F8CECC;gradientColor=none;" parent="ar0YonLz6d8A-IU5Dzzf-1" vertex="1">
          <mxGeometry x="530" y="80" width="80" height="80" as="geometry" />
        </mxCell>
      </root>
    </mxGraphModel>
  </diagram>
  <diagram id="y0YD-jHEC8AzGdpM9Mlm" name="trpc支持">
    <mxGraphModel dx="1122" dy="722" grid="0" gridSize="10" guides="1" tooltips="1" connect="1" arrows="1" fold="1" page="1" pageScale="1" pageWidth="827" pageHeight="1169" math="0" shadow="0">
      <root>
        <mxCell id="0" />
        <mxCell id="1" parent="0" />
        <mxCell id="y2fUytZdpL4gf7nA7xfG-45" value="" style="group" vertex="1" connectable="0" parent="1">
          <mxGeometry x="30" y="140" width="750" height="500" as="geometry" />
        </mxCell>
        <mxCell id="y2fUytZdpL4gf7nA7xfG-5" value="微服务治理" style="text;html=1;strokeColor=none;fillColor=none;align=center;verticalAlign=middle;whiteSpace=wrap;rounded=0;" vertex="1" parent="y2fUytZdpL4gf7nA7xfG-45">
          <mxGeometry x="550" y="235" width="70" height="30" as="geometry" />
        </mxCell>
        <mxCell id="y2fUytZdpL4gf7nA7xfG-7" value="" style="html=1;outlineConnect=0;whiteSpace=wrap;fillColor=#99ffff;shape=mxgraph.archimate3.application;appType=func;archiType=rounded;dashed=1;" vertex="1" parent="y2fUytZdpL4gf7nA7xfG-45">
          <mxGeometry x="630" y="130" width="120" height="235" as="geometry" />
        </mxCell>
        <mxCell id="y2fUytZdpL4gf7nA7xfG-8" value="trpc&amp;nbsp;" style="html=1;outlineConnect=0;whiteSpace=wrap;fillColor=#cdeb8b;shape=mxgraph.archimate3.application;archiType=rounded;dashed=1;strokeColor=#36393d;" vertex="1" parent="y2fUytZdpL4gf7nA7xfG-45">
          <mxGeometry x="20" y="47.5" width="150" height="75" as="geometry" />
        </mxCell>
        <mxCell id="y2fUytZdpL4gf7nA7xfG-16" style="edgeStyle=orthogonalEdgeStyle;rounded=0;orthogonalLoop=1;jettySize=auto;html=1;exitX=0;exitY=0.5;exitDx=0;exitDy=0;" edge="1" parent="y2fUytZdpL4gf7nA7xfG-45" source="y2fUytZdpL4gf7nA7xfG-11" target="y2fUytZdpL4gf7nA7xfG-8">
          <mxGeometry relative="1" as="geometry" />
        </mxCell>
        <mxCell id="y2fUytZdpL4gf7nA7xfG-11" value="" style="rounded=0;whiteSpace=wrap;html=1;dashed=1;" vertex="1" parent="y2fUytZdpL4gf7nA7xfG-45">
          <mxGeometry x="264" y="40" width="266" height="90" as="geometry" />
        </mxCell>
        <mxCell id="y2fUytZdpL4gf7nA7xfG-12" value="trpc插件" style="text;html=1;strokeColor=none;fillColor=none;align=center;verticalAlign=middle;whiteSpace=wrap;rounded=0;dashed=1;" vertex="1" parent="y2fUytZdpL4gf7nA7xfG-45">
          <mxGeometry x="367" width="60" height="30" as="geometry" />
        </mxCell>
        <mxCell id="y2fUytZdpL4gf7nA7xfG-13" value="selector" style="ellipse;whiteSpace=wrap;html=1;aspect=fixed;dashed=1;fillColor=#cdeb8b;strokeColor=#36393d;" vertex="1" parent="y2fUytZdpL4gf7nA7xfG-45">
          <mxGeometry x="270" y="45" width="80" height="80" as="geometry" />
        </mxCell>
        <mxCell id="y2fUytZdpL4gf7nA7xfG-14" value="可观测" style="ellipse;whiteSpace=wrap;html=1;aspect=fixed;dashed=1;fillColor=#cdeb8b;strokeColor=#36393d;" vertex="1" parent="y2fUytZdpL4gf7nA7xfG-45">
          <mxGeometry x="360" y="45" width="80" height="80" as="geometry" />
        </mxCell>
        <mxCell id="y2fUytZdpL4gf7nA7xfG-18" style="edgeStyle=orthogonalEdgeStyle;rounded=0;orthogonalLoop=1;jettySize=auto;html=1;exitX=1;exitY=0.5;exitDx=0;exitDy=0;" edge="1" parent="y2fUytZdpL4gf7nA7xfG-45" source="y2fUytZdpL4gf7nA7xfG-15" target="y2fUytZdpL4gf7nA7xfG-7">
          <mxGeometry relative="1" as="geometry" />
        </mxCell>
        <mxCell id="y2fUytZdpL4gf7nA7xfG-15" value="....." style="ellipse;whiteSpace=wrap;html=1;aspect=fixed;dashed=1;fillColor=#cdeb8b;strokeColor=#36393d;" vertex="1" parent="y2fUytZdpL4gf7nA7xfG-45">
          <mxGeometry x="450" y="45" width="80" height="80" as="geometry" />
        </mxCell>
        <mxCell id="y2fUytZdpL4gf7nA7xfG-17" value="import" style="text;html=1;strokeColor=none;fillColor=none;align=center;verticalAlign=middle;whiteSpace=wrap;rounded=0;dashed=1;" vertex="1" parent="y2fUytZdpL4gf7nA7xfG-45">
          <mxGeometry x="180" y="45" width="60" height="30" as="geometry" />
        </mxCell>
        <mxCell id="y2fUytZdpL4gf7nA7xfG-19" value="srf" style="html=1;outlineConnect=0;whiteSpace=wrap;fillColor=#FFE0E0;shape=mxgraph.archimate3.application;archiType=rounded;dashed=1;" vertex="1" parent="y2fUytZdpL4gf7nA7xfG-45">
          <mxGeometry x="20" y="377.5" width="150" height="75" as="geometry" />
        </mxCell>
        <mxCell id="y2fUytZdpL4gf7nA7xfG-26" style="edgeStyle=orthogonalEdgeStyle;rounded=0;orthogonalLoop=1;jettySize=auto;html=1;exitX=0;exitY=0.5;exitDx=0;exitDy=0;entryX=1;entryY=0.5;entryDx=0;entryDy=0;entryPerimeter=0;" edge="1" parent="y2fUytZdpL4gf7nA7xfG-45" source="y2fUytZdpL4gf7nA7xfG-20" target="y2fUytZdpL4gf7nA7xfG-19">
          <mxGeometry relative="1" as="geometry" />
        </mxCell>
        <mxCell id="y2fUytZdpL4gf7nA7xfG-20" value="" style="rounded=0;whiteSpace=wrap;html=1;dashed=1;" vertex="1" parent="y2fUytZdpL4gf7nA7xfG-45">
          <mxGeometry x="264" y="370" width="266" height="90" as="geometry" />
        </mxCell>
        <mxCell id="y2fUytZdpL4gf7nA7xfG-21" value="srf插件" style="text;html=1;strokeColor=none;fillColor=none;align=center;verticalAlign=middle;whiteSpace=wrap;rounded=0;dashed=1;" vertex="1" parent="y2fUytZdpL4gf7nA7xfG-45">
          <mxGeometry x="367" y="470" width="60" height="30" as="geometry" />
        </mxCell>
        <mxCell id="y2fUytZdpL4gf7nA7xfG-22" value="selector" style="ellipse;whiteSpace=wrap;html=1;aspect=fixed;dashed=1;fillColor=#ffcccc;strokeColor=#36393d;" vertex="1" parent="y2fUytZdpL4gf7nA7xfG-45">
          <mxGeometry x="270" y="375" width="80" height="80" as="geometry" />
        </mxCell>
        <mxCell id="y2fUytZdpL4gf7nA7xfG-23" value="可观测" style="ellipse;whiteSpace=wrap;html=1;aspect=fixed;dashed=1;fillColor=#ffcccc;strokeColor=#36393d;" vertex="1" parent="y2fUytZdpL4gf7nA7xfG-45">
          <mxGeometry x="360" y="375" width="80" height="80" as="geometry" />
        </mxCell>
        <mxCell id="y2fUytZdpL4gf7nA7xfG-25" style="edgeStyle=orthogonalEdgeStyle;rounded=0;orthogonalLoop=1;jettySize=auto;html=1;exitX=1;exitY=0.5;exitDx=0;exitDy=0;entryX=0.5;entryY=1;entryDx=0;entryDy=0;entryPerimeter=0;" edge="1" parent="y2fUytZdpL4gf7nA7xfG-45" source="y2fUytZdpL4gf7nA7xfG-24" target="y2fUytZdpL4gf7nA7xfG-7">
          <mxGeometry relative="1" as="geometry" />
        </mxCell>
        <mxCell id="y2fUytZdpL4gf7nA7xfG-24" value="....." style="ellipse;whiteSpace=wrap;html=1;aspect=fixed;dashed=1;fillColor=#ffcccc;strokeColor=#36393d;" vertex="1" parent="y2fUytZdpL4gf7nA7xfG-45">
          <mxGeometry x="450" y="375" width="80" height="80" as="geometry" />
        </mxCell>
        <mxCell id="y2fUytZdpL4gf7nA7xfG-27" value="import" style="text;html=1;strokeColor=none;fillColor=none;align=center;verticalAlign=middle;whiteSpace=wrap;rounded=0;dashed=1;" vertex="1" parent="y2fUytZdpL4gf7nA7xfG-45">
          <mxGeometry x="190" y="422.5" width="60" height="30" as="geometry" />
        </mxCell>
        <mxCell id="y2fUytZdpL4gf7nA7xfG-28" value="" style="html=1;outlineConnect=0;whiteSpace=wrap;fillColor=#ffff99;shape=mxgraph.archimate3.collaboration;dashed=1;" vertex="1" parent="y2fUytZdpL4gf7nA7xfG-45">
          <mxGeometry x="240" y="230" width="60" height="35" as="geometry" />
        </mxCell>
        <mxCell id="y2fUytZdpL4gf7nA7xfG-31" style="edgeStyle=none;rounded=0;orthogonalLoop=1;jettySize=auto;html=1;exitX=1;exitY=1;exitDx=-2.9;exitDy=-2.9;exitPerimeter=0;entryX=0.3;entryY=0;entryDx=0;entryDy=0;entryPerimeter=0;strokeColor=#007FFF;" edge="1" parent="y2fUytZdpL4gf7nA7xfG-45" source="y2fUytZdpL4gf7nA7xfG-8" target="y2fUytZdpL4gf7nA7xfG-28">
          <mxGeometry relative="1" as="geometry" />
        </mxCell>
        <mxCell id="y2fUytZdpL4gf7nA7xfG-30" style="edgeStyle=none;rounded=0;orthogonalLoop=1;jettySize=auto;html=1;exitX=1;exitY=0;exitDx=-2.9;exitDy=2.9;exitPerimeter=0;entryX=0.3;entryY=1;entryDx=0;entryDy=0;entryPerimeter=0;strokeColor=#007FFF;startArrow=classic;startFill=1;endArrow=none;endFill=0;" edge="1" parent="y2fUytZdpL4gf7nA7xfG-45" source="y2fUytZdpL4gf7nA7xfG-19" target="y2fUytZdpL4gf7nA7xfG-28">
          <mxGeometry relative="1" as="geometry" />
        </mxCell>
        <mxCell id="y2fUytZdpL4gf7nA7xfG-29" value="trpc-tars" style="text;html=1;strokeColor=none;fillColor=none;align=center;verticalAlign=middle;whiteSpace=wrap;rounded=0;dashed=1;" vertex="1" parent="y2fUytZdpL4gf7nA7xfG-45">
          <mxGeometry x="320" y="235" width="60" height="30" as="geometry" />
        </mxCell>
        <mxCell id="y2fUytZdpL4gf7nA7xfG-34" value="trpc桩代码" style="text;html=1;strokeColor=none;fillColor=none;align=center;verticalAlign=middle;whiteSpace=wrap;rounded=0;dashed=1;" vertex="1" parent="y2fUytZdpL4gf7nA7xfG-45">
          <mxGeometry y="165" width="60" height="30" as="geometry" />
        </mxCell>
        <mxCell id="y2fUytZdpL4gf7nA7xfG-36" value="srf桩代码" style="text;html=1;strokeColor=none;fillColor=none;align=center;verticalAlign=middle;whiteSpace=wrap;rounded=0;dashed=1;" vertex="1" parent="y2fUytZdpL4gf7nA7xfG-45">
          <mxGeometry y="310" width="60" height="30" as="geometry" />
        </mxCell>
        <mxCell id="y2fUytZdpL4gf7nA7xfG-38" style="edgeStyle=none;rounded=0;orthogonalLoop=1;jettySize=auto;html=1;exitX=1;exitY=1;exitDx=0;exitDy=0;startArrow=classic;startFill=1;endArrow=none;endFill=0;strokeColor=#007FFF;" edge="1" parent="y2fUytZdpL4gf7nA7xfG-45">
          <mxGeometry relative="1" as="geometry">
            <mxPoint x="122.67766952966372" y="334.14213562373106" as="sourcePoint" />
            <mxPoint x="122.41964210658557" y="334.34558761718813" as="targetPoint" />
          </mxGeometry>
        </mxCell>
        <mxCell id="y2fUytZdpL4gf7nA7xfG-39" value="" style="html=1;outlineConnect=0;whiteSpace=wrap;fillColor=#ffcccc;shape=mxgraph.archimate3.collaboration;dashed=1;strokeColor=#36393d;" vertex="1" parent="y2fUytZdpL4gf7nA7xfG-45">
          <mxGeometry x="65" y="305" width="60" height="35" as="geometry" />
        </mxCell>
        <mxCell id="y2fUytZdpL4gf7nA7xfG-41" style="edgeStyle=none;rounded=0;orthogonalLoop=1;jettySize=auto;html=1;exitX=0.5;exitY=0;exitDx=0;exitDy=0;exitPerimeter=0;entryX=0.5;entryY=0.875;entryDx=0;entryDy=0;entryPerimeter=0;startArrow=classic;startFill=1;endArrow=none;endFill=0;strokeColor=#FF99CC;" edge="1" parent="y2fUytZdpL4gf7nA7xfG-45" source="y2fUytZdpL4gf7nA7xfG-19" target="y2fUytZdpL4gf7nA7xfG-39">
          <mxGeometry relative="1" as="geometry" />
        </mxCell>
        <mxCell id="y2fUytZdpL4gf7nA7xfG-43" value="" style="html=1;outlineConnect=0;whiteSpace=wrap;fillColor=#cdeb8b;shape=mxgraph.archimate3.collaboration;dashed=1;strokeColor=#36393d;" vertex="1" parent="y2fUytZdpL4gf7nA7xfG-45">
          <mxGeometry x="65" y="165" width="60" height="35" as="geometry" />
        </mxCell>
        <mxCell id="y2fUytZdpL4gf7nA7xfG-44" style="edgeStyle=none;rounded=0;orthogonalLoop=1;jettySize=auto;html=1;exitX=0.5;exitY=1;exitDx=0;exitDy=0;exitPerimeter=0;entryX=0.5;entryY=0.125;entryDx=0;entryDy=0;entryPerimeter=0;startArrow=classic;startFill=1;endArrow=none;endFill=0;strokeColor=#00FF00;" edge="1" parent="y2fUytZdpL4gf7nA7xfG-45" source="y2fUytZdpL4gf7nA7xfG-8" target="y2fUytZdpL4gf7nA7xfG-43">
          <mxGeometry relative="1" as="geometry" />
        </mxCell>
      </root>
    </mxGraphModel>
  </diagram>
</mxfile>
